<mxfile host="app.diagrams.net" agent="Mozilla/5.0 (Macintosh; Intel Mac OS X 10_15_7) AppleWebKit/537.36 (KHTML, like Gecko) Chrome/129.0.0.0 Safari/537.36" version="24.7.17">
  <diagram name="Page-1" id="7nEKnkgAgNU6XBnmRiWE">
    <mxGraphModel dx="954" dy="569" grid="0" gridSize="10" guides="1" tooltips="1" connect="1" arrows="1" fold="1" page="1" pageScale="1" pageWidth="827" pageHeight="1169" math="0" shadow="0">
      <root>
        <mxCell id="0" />
        <mxCell id="1" parent="0" />
        <mxCell id="6wFxL5HSVmzdd2mruH-2-7" value="" style="edgeStyle=orthogonalEdgeStyle;rounded=0;orthogonalLoop=1;jettySize=auto;html=1;" parent="1" source="6wFxL5HSVmzdd2mruH-2-1" target="6wFxL5HSVmzdd2mruH-2-2" edge="1">
          <mxGeometry relative="1" as="geometry" />
        </mxCell>
        <mxCell id="6wFxL5HSVmzdd2mruH-2-1" value="" style="ellipse;whiteSpace=wrap;html=1;aspect=fixed;fillColor=#000000;" parent="1" vertex="1">
          <mxGeometry x="65" y="40" width="35" height="35" as="geometry" />
        </mxCell>
        <mxCell id="6wFxL5HSVmzdd2mruH-2-8" value="" style="edgeStyle=orthogonalEdgeStyle;rounded=0;orthogonalLoop=1;jettySize=auto;html=1;" parent="1" source="6wFxL5HSVmzdd2mruH-2-2" target="6wFxL5HSVmzdd2mruH-2-3" edge="1">
          <mxGeometry relative="1" as="geometry" />
        </mxCell>
        <mxCell id="6wFxL5HSVmzdd2mruH-2-2" value="Customer Login" style="rounded=1;whiteSpace=wrap;html=1;" parent="1" vertex="1">
          <mxGeometry x="155" y="35.25" width="97" height="44.5" as="geometry" />
        </mxCell>
        <mxCell id="6wFxL5HSVmzdd2mruH-2-9" value="" style="edgeStyle=orthogonalEdgeStyle;rounded=0;orthogonalLoop=1;jettySize=auto;html=1;" parent="1" source="6wFxL5HSVmzdd2mruH-2-3" target="6wFxL5HSVmzdd2mruH-2-4" edge="1">
          <mxGeometry relative="1" as="geometry" />
        </mxCell>
        <mxCell id="6wFxL5HSVmzdd2mruH-2-14" style="edgeStyle=orthogonalEdgeStyle;rounded=0;orthogonalLoop=1;jettySize=auto;html=1;entryX=0;entryY=0.5;entryDx=0;entryDy=0;" parent="1" source="6wFxL5HSVmzdd2mruH-2-3" target="6wFxL5HSVmzdd2mruH-2-5" edge="1">
          <mxGeometry relative="1" as="geometry" />
        </mxCell>
        <mxCell id="6wFxL5HSVmzdd2mruH-2-3" value="Verification" style="rounded=1;whiteSpace=wrap;html=1;" parent="1" vertex="1">
          <mxGeometry x="319" y="35.25" width="97" height="44.5" as="geometry" />
        </mxCell>
        <mxCell id="6wFxL5HSVmzdd2mruH-2-10" style="edgeStyle=orthogonalEdgeStyle;rounded=0;orthogonalLoop=1;jettySize=auto;html=1;" parent="1" source="6wFxL5HSVmzdd2mruH-2-4" edge="1">
          <mxGeometry relative="1" as="geometry">
            <mxPoint x="204" y="81" as="targetPoint" />
          </mxGeometry>
        </mxCell>
        <mxCell id="6wFxL5HSVmzdd2mruH-2-4" value="Re-Login" style="rounded=1;whiteSpace=wrap;html=1;" parent="1" vertex="1">
          <mxGeometry x="319" y="135" width="97" height="44.5" as="geometry" />
        </mxCell>
        <mxCell id="6wFxL5HSVmzdd2mruH-2-16" style="edgeStyle=orthogonalEdgeStyle;rounded=0;orthogonalLoop=1;jettySize=auto;html=1;entryX=0.5;entryY=0;entryDx=0;entryDy=0;" parent="1" source="6wFxL5HSVmzdd2mruH-2-5" target="6wFxL5HSVmzdd2mruH-2-6" edge="1">
          <mxGeometry relative="1" as="geometry" />
        </mxCell>
        <mxCell id="6wFxL5HSVmzdd2mruH-2-5" value="Access&lt;div&gt;Account&lt;/div&gt;" style="rounded=1;whiteSpace=wrap;html=1;" parent="1" vertex="1">
          <mxGeometry x="550" y="35.25" width="97" height="44.5" as="geometry" />
        </mxCell>
        <mxCell id="6wFxL5HSVmzdd2mruH-2-21" value="" style="edgeStyle=orthogonalEdgeStyle;rounded=0;orthogonalLoop=1;jettySize=auto;html=1;" parent="1" source="6wFxL5HSVmzdd2mruH-2-6" target="6wFxL5HSVmzdd2mruH-2-20" edge="1">
          <mxGeometry relative="1" as="geometry" />
        </mxCell>
        <mxCell id="6wFxL5HSVmzdd2mruH-2-6" value="Choose&amp;nbsp;&lt;div&gt;Category&lt;/div&gt;" style="rounded=1;whiteSpace=wrap;html=1;" parent="1" vertex="1">
          <mxGeometry x="550" y="126" width="97" height="44.5" as="geometry" />
        </mxCell>
        <mxCell id="6wFxL5HSVmzdd2mruH-2-11" value="login" style="text;html=1;align=center;verticalAlign=middle;whiteSpace=wrap;rounded=0;" parent="1" vertex="1">
          <mxGeometry x="231" y="126" width="60" height="30" as="geometry" />
        </mxCell>
        <mxCell id="6wFxL5HSVmzdd2mruH-2-12" value="verify" style="text;html=1;align=center;verticalAlign=middle;resizable=0;points=[];autosize=1;strokeColor=none;fillColor=none;" parent="1" vertex="1">
          <mxGeometry x="259" y="30" width="47" height="26" as="geometry" />
        </mxCell>
        <mxCell id="6wFxL5HSVmzdd2mruH-2-13" value="invalid login" style="text;html=1;align=center;verticalAlign=middle;resizable=0;points=[];autosize=1;strokeColor=none;fillColor=none;" parent="1" vertex="1">
          <mxGeometry x="280" y="94" width="81" height="26" as="geometry" />
        </mxCell>
        <mxCell id="6wFxL5HSVmzdd2mruH-2-15" value="valid" style="text;html=1;align=center;verticalAlign=middle;resizable=0;points=[];autosize=1;strokeColor=none;fillColor=none;" parent="1" vertex="1">
          <mxGeometry x="462" y="30" width="43" height="26" as="geometry" />
        </mxCell>
        <mxCell id="6wFxL5HSVmzdd2mruH-2-17" value="access" style="text;html=1;align=center;verticalAlign=middle;resizable=0;points=[];autosize=1;strokeColor=none;fillColor=none;" parent="1" vertex="1">
          <mxGeometry x="538" y="86" width="55" height="26" as="geometry" />
        </mxCell>
        <mxCell id="6wFxL5HSVmzdd2mruH-2-23" value="" style="edgeStyle=orthogonalEdgeStyle;rounded=0;orthogonalLoop=1;jettySize=auto;html=1;" parent="1" source="6wFxL5HSVmzdd2mruH-2-20" target="6wFxL5HSVmzdd2mruH-2-22" edge="1">
          <mxGeometry relative="1" as="geometry" />
        </mxCell>
        <mxCell id="6wFxL5HSVmzdd2mruH-2-20" value="Choose&amp;nbsp;&lt;span style=&quot;background-color: initial;&quot;&gt;book&lt;/span&gt;" style="rounded=1;whiteSpace=wrap;html=1;" parent="1" vertex="1">
          <mxGeometry x="550" y="210" width="97" height="44.5" as="geometry" />
        </mxCell>
        <mxCell id="6wFxL5HSVmzdd2mruH-2-34" style="edgeStyle=orthogonalEdgeStyle;rounded=0;orthogonalLoop=1;jettySize=auto;html=1;entryX=0;entryY=0.5;entryDx=0;entryDy=0;" parent="1" source="6wFxL5HSVmzdd2mruH-2-22" target="6wFxL5HSVmzdd2mruH-2-25" edge="1">
          <mxGeometry relative="1" as="geometry" />
        </mxCell>
        <mxCell id="6wFxL5HSVmzdd2mruH-2-37" style="edgeStyle=orthogonalEdgeStyle;rounded=0;orthogonalLoop=1;jettySize=auto;html=1;entryX=0.5;entryY=0;entryDx=0;entryDy=0;" parent="1" source="6wFxL5HSVmzdd2mruH-2-22" target="6wFxL5HSVmzdd2mruH-2-36" edge="1">
          <mxGeometry relative="1" as="geometry" />
        </mxCell>
        <mxCell id="6wFxL5HSVmzdd2mruH-2-22" value="" style="rhombus;whiteSpace=wrap;html=1;" parent="1" vertex="1">
          <mxGeometry x="579.5" y="294" width="38" height="38" as="geometry" />
        </mxCell>
        <mxCell id="6wFxL5HSVmzdd2mruH-2-24" value="book available" style="text;html=1;align=center;verticalAlign=middle;resizable=0;points=[];autosize=1;strokeColor=none;fillColor=none;" parent="1" vertex="1">
          <mxGeometry x="484.5" y="300" width="95" height="26" as="geometry" />
        </mxCell>
        <mxCell id="6wFxL5HSVmzdd2mruH-2-25" value="Item not found" style="rounded=1;whiteSpace=wrap;html=1;" parent="1" vertex="1">
          <mxGeometry x="678" y="290.75" width="97" height="44.5" as="geometry" />
        </mxCell>
        <mxCell id="6wFxL5HSVmzdd2mruH-2-26" value="" style="ellipse;whiteSpace=wrap;html=1;aspect=fixed;" parent="1" vertex="1">
          <mxGeometry x="20" y="601" width="48" height="48" as="geometry" />
        </mxCell>
        <mxCell id="6wFxL5HSVmzdd2mruH-2-42" style="edgeStyle=orthogonalEdgeStyle;rounded=0;orthogonalLoop=1;jettySize=auto;html=1;" parent="1" edge="1">
          <mxGeometry relative="1" as="geometry">
            <mxPoint x="732" y="288" as="sourcePoint" />
            <mxPoint x="650" y="231" as="targetPoint" />
            <Array as="points">
              <mxPoint x="732" y="231" />
            </Array>
          </mxGeometry>
        </mxCell>
        <mxCell id="6wFxL5HSVmzdd2mruH-2-28" value="" style="ellipse;whiteSpace=wrap;html=1;aspect=fixed;fillColor=#000000;" parent="1" vertex="1">
          <mxGeometry x="26.5" y="607.5" width="35" height="35" as="geometry" />
        </mxCell>
        <mxCell id="6wFxL5HSVmzdd2mruH-2-35" value="no" style="text;html=1;align=center;verticalAlign=middle;resizable=0;points=[];autosize=1;strokeColor=none;fillColor=none;" parent="1" vertex="1">
          <mxGeometry x="628" y="290.75" width="31" height="26" as="geometry" />
        </mxCell>
        <mxCell id="6wFxL5HSVmzdd2mruH-2-52" value="" style="edgeStyle=orthogonalEdgeStyle;rounded=0;orthogonalLoop=1;jettySize=auto;html=1;" parent="1" source="6wFxL5HSVmzdd2mruH-2-36" target="6wFxL5HSVmzdd2mruH-2-50" edge="1">
          <mxGeometry relative="1" as="geometry" />
        </mxCell>
        <mxCell id="6wFxL5HSVmzdd2mruH-2-36" value="Book preview" style="rounded=1;whiteSpace=wrap;html=1;" parent="1" vertex="1">
          <mxGeometry x="550" y="376" width="97" height="44.5" as="geometry" />
        </mxCell>
        <mxCell id="6wFxL5HSVmzdd2mruH-2-38" value="yes" style="text;html=1;align=center;verticalAlign=middle;resizable=0;points=[];autosize=1;strokeColor=none;fillColor=none;" parent="1" vertex="1">
          <mxGeometry x="605" y="335.25" width="37" height="26" as="geometry" />
        </mxCell>
        <mxCell id="6wFxL5HSVmzdd2mruH-2-43" value="return to book menu" style="text;html=1;align=center;verticalAlign=middle;resizable=0;points=[];autosize=1;strokeColor=none;fillColor=none;" parent="1" vertex="1">
          <mxGeometry x="657" y="205" width="125" height="26" as="geometry" />
        </mxCell>
        <mxCell id="6wFxL5HSVmzdd2mruH-2-74" value="" style="edgeStyle=orthogonalEdgeStyle;rounded=0;orthogonalLoop=1;jettySize=auto;html=1;" parent="1" source="6wFxL5HSVmzdd2mruH-2-49" edge="1">
          <mxGeometry relative="1" as="geometry">
            <mxPoint x="446" y="666.25" as="targetPoint" />
          </mxGeometry>
        </mxCell>
        <mxCell id="6wFxL5HSVmzdd2mruH-2-49" value="Read the book" style="rounded=1;whiteSpace=wrap;html=1;" parent="1" vertex="1">
          <mxGeometry x="550" y="644" width="97" height="44.5" as="geometry" />
        </mxCell>
        <mxCell id="6wFxL5HSVmzdd2mruH-2-54" style="edgeStyle=orthogonalEdgeStyle;rounded=0;orthogonalLoop=1;jettySize=auto;html=1;" parent="1" source="6wFxL5HSVmzdd2mruH-2-50" target="6wFxL5HSVmzdd2mruH-2-20" edge="1">
          <mxGeometry relative="1" as="geometry">
            <mxPoint x="439" y="223" as="targetPoint" />
            <Array as="points">
              <mxPoint x="441" y="481" />
              <mxPoint x="441" y="227" />
            </Array>
          </mxGeometry>
        </mxCell>
        <mxCell id="6wFxL5HSVmzdd2mruH-2-65" value="" style="edgeStyle=orthogonalEdgeStyle;rounded=0;orthogonalLoop=1;jettySize=auto;html=1;" parent="1" source="6wFxL5HSVmzdd2mruH-2-50" target="6wFxL5HSVmzdd2mruH-2-64" edge="1">
          <mxGeometry relative="1" as="geometry" />
        </mxCell>
        <mxCell id="6wFxL5HSVmzdd2mruH-2-50" value="" style="rhombus;whiteSpace=wrap;html=1;" parent="1" vertex="1">
          <mxGeometry x="579.5" y="459" width="38" height="38" as="geometry" />
        </mxCell>
        <mxCell id="6wFxL5HSVmzdd2mruH-2-53" value="want to read" style="text;html=1;align=center;verticalAlign=middle;resizable=0;points=[];autosize=1;strokeColor=none;fillColor=none;" parent="1" vertex="1">
          <mxGeometry x="617.5" y="465" width="84" height="26" as="geometry" />
        </mxCell>
        <mxCell id="6wFxL5HSVmzdd2mruH-2-55" value="no" style="text;html=1;align=center;verticalAlign=middle;resizable=0;points=[];autosize=1;strokeColor=none;fillColor=none;" parent="1" vertex="1">
          <mxGeometry x="505" y="453" width="31" height="26" as="geometry" />
        </mxCell>
        <mxCell id="6wFxL5HSVmzdd2mruH-2-57" value="return to book menu" style="text;html=1;align=center;verticalAlign=middle;resizable=0;points=[];autosize=1;strokeColor=none;fillColor=none;" parent="1" vertex="1">
          <mxGeometry x="308" y="326" width="125" height="26" as="geometry" />
        </mxCell>
        <mxCell id="6wFxL5HSVmzdd2mruH-2-62" value="yes" style="text;html=1;align=center;verticalAlign=middle;resizable=0;points=[];autosize=1;strokeColor=none;fillColor=none;" parent="1" vertex="1">
          <mxGeometry x="556" y="507" width="37" height="26" as="geometry" />
        </mxCell>
        <mxCell id="6wFxL5HSVmzdd2mruH-2-67" value="" style="edgeStyle=orthogonalEdgeStyle;rounded=0;orthogonalLoop=1;jettySize=auto;html=1;" parent="1" source="6wFxL5HSVmzdd2mruH-2-64" target="6wFxL5HSVmzdd2mruH-2-49" edge="1">
          <mxGeometry relative="1" as="geometry" />
        </mxCell>
        <mxCell id="6wFxL5HSVmzdd2mruH-2-64" value="" style="rhombus;whiteSpace=wrap;html=1;" parent="1" vertex="1">
          <mxGeometry x="579.5" y="555" width="38" height="38" as="geometry" />
        </mxCell>
        <mxCell id="6wFxL5HSVmzdd2mruH-2-66" value="continue where left off" style="text;html=1;align=center;verticalAlign=middle;resizable=0;points=[];autosize=1;strokeColor=none;fillColor=none;" parent="1" vertex="1">
          <mxGeometry x="440" y="561" width="135" height="26" as="geometry" />
        </mxCell>
        <mxCell id="6wFxL5HSVmzdd2mruH-2-68" value="yes" style="text;html=1;align=center;verticalAlign=middle;resizable=0;points=[];autosize=1;strokeColor=none;fillColor=none;" parent="1" vertex="1">
          <mxGeometry x="558" y="598" width="37" height="26" as="geometry" />
        </mxCell>
        <mxCell id="6wFxL5HSVmzdd2mruH-2-71" style="edgeStyle=orthogonalEdgeStyle;rounded=0;orthogonalLoop=1;jettySize=auto;html=1;entryX=1;entryY=0.5;entryDx=0;entryDy=0;" parent="1" target="6wFxL5HSVmzdd2mruH-2-49" edge="1">
          <mxGeometry relative="1" as="geometry">
            <mxPoint x="698" y="670" as="targetPoint" />
            <mxPoint x="615" y="574" as="sourcePoint" />
            <Array as="points">
              <mxPoint x="737" y="574" />
              <mxPoint x="737" y="666" />
            </Array>
          </mxGeometry>
        </mxCell>
        <mxCell id="6wFxL5HSVmzdd2mruH-2-72" value="start from beginning" style="text;html=1;align=center;verticalAlign=middle;resizable=0;points=[];autosize=1;strokeColor=none;fillColor=none;" parent="1" vertex="1">
          <mxGeometry x="620" y="547" width="124" height="26" as="geometry" />
        </mxCell>
        <mxCell id="6wFxL5HSVmzdd2mruH-2-75" value="exit reading" style="text;html=1;align=center;verticalAlign=middle;resizable=0;points=[];autosize=1;strokeColor=none;fillColor=none;" parent="1" vertex="1">
          <mxGeometry x="462" y="638" width="80" height="26" as="geometry" />
        </mxCell>
        <mxCell id="6wFxL5HSVmzdd2mruH-2-78" style="edgeStyle=orthogonalEdgeStyle;rounded=0;orthogonalLoop=1;jettySize=auto;html=1;" parent="1" source="6wFxL5HSVmzdd2mruH-2-76" edge="1">
          <mxGeometry relative="1" as="geometry">
            <mxPoint x="350" y="666" as="targetPoint" />
          </mxGeometry>
        </mxCell>
        <mxCell id="6wFxL5HSVmzdd2mruH-2-81" style="edgeStyle=orthogonalEdgeStyle;rounded=0;orthogonalLoop=1;jettySize=auto;html=1;entryX=1;entryY=0.5;entryDx=0;entryDy=0;" parent="1" source="6wFxL5HSVmzdd2mruH-2-76" target="6wFxL5HSVmzdd2mruH-2-83" edge="1">
          <mxGeometry relative="1" as="geometry">
            <mxPoint x="428" y="597" as="targetPoint" />
            <Array as="points">
              <mxPoint x="430" y="595" />
            </Array>
          </mxGeometry>
        </mxCell>
        <mxCell id="6wFxL5HSVmzdd2mruH-2-76" value="" style="rhombus;whiteSpace=wrap;html=1;" parent="1" vertex="1">
          <mxGeometry x="409" y="647.25" width="38" height="38" as="geometry" />
        </mxCell>
        <mxCell id="6wFxL5HSVmzdd2mruH-2-77" value="isBookFinished" style="text;html=1;align=center;verticalAlign=middle;resizable=0;points=[];autosize=1;strokeColor=none;fillColor=none;" parent="1" vertex="1">
          <mxGeometry x="378.5" y="688.5" width="99" height="26" as="geometry" />
        </mxCell>
        <mxCell id="6wFxL5HSVmzdd2mruH-2-79" value="no" style="text;html=1;align=center;verticalAlign=middle;resizable=0;points=[];autosize=1;strokeColor=none;fillColor=none;" parent="1" vertex="1">
          <mxGeometry x="371" y="644" width="31" height="26" as="geometry" />
        </mxCell>
        <mxCell id="6wFxL5HSVmzdd2mruH-2-88" style="edgeStyle=orthogonalEdgeStyle;rounded=0;orthogonalLoop=1;jettySize=auto;html=1;entryX=1;entryY=0.5;entryDx=0;entryDy=0;" parent="1" source="6wFxL5HSVmzdd2mruH-2-80" target="6wFxL5HSVmzdd2mruH-2-85" edge="1">
          <mxGeometry relative="1" as="geometry" />
        </mxCell>
        <mxCell id="6wFxL5HSVmzdd2mruH-2-80" value="Save where left off" style="rounded=1;whiteSpace=wrap;html=1;" parent="1" vertex="1">
          <mxGeometry x="254" y="644" width="97" height="44.5" as="geometry" />
        </mxCell>
        <mxCell id="6wFxL5HSVmzdd2mruH-2-82" value="yes" style="text;html=1;align=center;verticalAlign=middle;resizable=0;points=[];autosize=1;strokeColor=none;fillColor=none;" parent="1" vertex="1">
          <mxGeometry x="376.5" y="573" width="37" height="26" as="geometry" />
        </mxCell>
        <mxCell id="6wFxL5HSVmzdd2mruH-2-86" style="edgeStyle=orthogonalEdgeStyle;rounded=0;orthogonalLoop=1;jettySize=auto;html=1;entryX=1;entryY=0.5;entryDx=0;entryDy=0;" parent="1" source="6wFxL5HSVmzdd2mruH-2-83" target="6wFxL5HSVmzdd2mruH-2-85" edge="1">
          <mxGeometry relative="1" as="geometry">
            <Array as="points">
              <mxPoint x="230" y="595" />
              <mxPoint x="230" y="625" />
            </Array>
          </mxGeometry>
        </mxCell>
        <mxCell id="6wFxL5HSVmzdd2mruH-2-83" value="Marked as read" style="rounded=1;whiteSpace=wrap;html=1;" parent="1" vertex="1">
          <mxGeometry x="252" y="573" width="97" height="44.5" as="geometry" />
        </mxCell>
        <mxCell id="6wFxL5HSVmzdd2mruH-2-90" style="edgeStyle=orthogonalEdgeStyle;rounded=0;orthogonalLoop=1;jettySize=auto;html=1;" parent="1" source="6wFxL5HSVmzdd2mruH-2-85" edge="1">
          <mxGeometry relative="1" as="geometry">
            <mxPoint x="70" y="625" as="targetPoint" />
          </mxGeometry>
        </mxCell>
        <mxCell id="6wFxL5HSVmzdd2mruH-2-85" value="Signout" style="rounded=1;whiteSpace=wrap;html=1;" parent="1" vertex="1">
          <mxGeometry x="110" y="602.75" width="97" height="44.5" as="geometry" />
        </mxCell>
        <mxCell id="6wFxL5HSVmzdd2mruH-2-91" value="end session" style="text;html=1;align=center;verticalAlign=middle;resizable=0;points=[];autosize=1;strokeColor=none;fillColor=none;" parent="1" vertex="1">
          <mxGeometry x="5" y="572" width="82" height="26" as="geometry" />
        </mxCell>
      </root>
    </mxGraphModel>
  </diagram>
</mxfile>
